<mxfile host="65bd71144e">
    <diagram id="iDTdLxvn-wY0aidMCYH9" name="Page-1">
        <mxGraphModel dx="1163" dy="683" grid="1" gridSize="10" guides="1" tooltips="1" connect="1" arrows="1" fold="1" page="1" pageScale="1" pageWidth="827" pageHeight="1169" math="0" shadow="0">
            <root>
                <mxCell id="0"/>
                <mxCell id="1" parent="0"/>
                <mxCell id="4" value="&lt;p dir=&quot;ltr&quot; id=&quot;yui_3_17_2_1_1667211607682_20&quot; style=&quot;box-sizing: border-box ; margin-top: 0px ; margin-bottom: 1rem&quot;&gt;&lt;span id=&quot;yui_3_17_2_1_1667211607682_19&quot; style=&quot;box-sizing: border-box ; font-weight: normal&quot;&gt;A health center needs a Database with the case history of all its patients.&amp;nbsp;&lt;/span&gt;&lt;/p&gt;&lt;p dir=&quot;ltr&quot; id=&quot;yui_3_17_2_1_1667211607682_29&quot; style=&quot;box-sizing: border-box ; margin-top: 0px ; margin-bottom: 1rem&quot;&gt;&lt;span id=&quot;yui_3_17_2_1_1667211607682_28&quot; style=&quot;box-sizing: border-box ; font-weight: normal&quot;&gt;The health center is divided into several&lt;span&gt;&amp;nbsp;&lt;/span&gt;&lt;/span&gt;units&lt;span style=&quot;box-sizing: border-box ; font-weight: normal&quot;&gt;, each one having an identifier, a name and the floor on which it is located.&lt;/span&gt;&lt;/p&gt;&lt;p dir=&quot;ltr&quot; id=&quot;yui_3_17_2_1_1667211607682_30&quot; style=&quot;box-sizing: border-box ; margin-top: 0px ; margin-bottom: 1rem&quot;&gt;&lt;span style=&quot;box-sizing: border-box ; font-weight: normal&quot;&gt;The unit has a&lt;span&gt;&amp;nbsp;&lt;/span&gt;&lt;/span&gt;doctor in charge&lt;span style=&quot;box-sizing: border-box ; font-weight: normal&quot;&gt;, characterized by his/her name, code and specialty.&amp;nbsp;&lt;/span&gt;&lt;/p&gt;&lt;p dir=&quot;ltr&quot; id=&quot;yui_3_17_2_1_1667211607682_31&quot; style=&quot;box-sizing: border-box ; margin-top: 0px ; margin-bottom: 1rem&quot;&gt;&lt;span style=&quot;box-sizing: border-box ; font-weight: normal&quot;&gt;When&lt;span&gt;&amp;nbsp;&lt;/span&gt;&lt;/span&gt;patients&lt;span id=&quot;yui_3_17_2_1_1667211607682_32&quot; style=&quot;box-sizing: border-box ; font-weight: normal&quot;&gt;&lt;span&gt;&amp;nbsp;&lt;/span&gt;arrive, they are admitted to a unit and registered with their Social Security number, age and date of admission.&amp;nbsp;&lt;/span&gt;&lt;/p&gt;&lt;p dir=&quot;ltr&quot; id=&quot;yui_3_17_2_1_1667211607682_33&quot; style=&quot;box-sizing: border-box ; margin-top: 0px ; margin-bottom: 1rem&quot;&gt;&lt;span style=&quot;box-sizing: border-box ; font-weight: normal&quot;&gt;While they are still in the hospital, all&lt;span&gt;&amp;nbsp;&lt;/span&gt;&lt;/span&gt;interventions&lt;span&gt;&amp;nbsp;&lt;/span&gt;&lt;span style=&quot;box-sizing: border-box ; font-weight: normal&quot;&gt;realized by doctors are written down, setting the date, the observed symptom and the prescribed treatment.&lt;/span&gt;&lt;/p&gt;&lt;span style=&quot;box-sizing: border-box ; font-weight: normal&quot;&gt;&lt;br style=&quot;box-sizing: border-box; color: rgb(55, 58, 60); font-size: 15px; font-style: normal; font-weight: 400; letter-spacing: normal; text-align: left; text-indent: 0px; text-transform: none; word-spacing: 0px; background-color: rgb(255, 255, 255);&quot;&gt;&#10;&#10;&lt;/span&gt;" style="text;whiteSpace=wrap;html=1;" vertex="1" parent="1">
                    <mxGeometry width="820" height="250" as="geometry"/>
                </mxCell>
                <mxCell id="5" value="Actor" style="shape=umlActor;verticalLabelPosition=bottom;verticalAlign=top;html=1;outlineConnect=0;" vertex="1" parent="1">
                    <mxGeometry x="350" y="460" width="30" height="60" as="geometry"/>
                </mxCell>
                <mxCell id="6" value="doctor" style="ellipse;shape=cloud;whiteSpace=wrap;html=1;" vertex="1" parent="1">
                    <mxGeometry x="390" y="370" width="120" height="80" as="geometry"/>
                </mxCell>
                <mxCell id="7" value="unit" style="ellipse;shape=cloud;whiteSpace=wrap;html=1;" vertex="1" parent="1">
                    <mxGeometry x="390" y="280" width="120" height="80" as="geometry"/>
                </mxCell>
                <mxCell id="8" value="patient" style="ellipse;shape=cloud;whiteSpace=wrap;html=1;" vertex="1" parent="1">
                    <mxGeometry x="240" y="280" width="120" height="80" as="geometry"/>
                </mxCell>
            </root>
        </mxGraphModel>
    </diagram>
    <diagram id="osd2lwLoOxIA8Y2934U_" name="Page-2">
        <mxGraphModel dx="958" dy="562" grid="1" gridSize="10" guides="1" tooltips="1" connect="1" arrows="1" fold="1" page="1" pageScale="1" pageWidth="827" pageHeight="1169" math="0" shadow="0">
            <root>
                <mxCell id="OCNIVuz7RXcEAR-W5PyZ-0"/>
                <mxCell id="OCNIVuz7RXcEAR-W5PyZ-1" parent="OCNIVuz7RXcEAR-W5PyZ-0"/>
                <mxCell id="Qt7O-UEUkP4-06e8IKbv-9" style="edgeStyle=none;html=1;entryX=0.5;entryY=1;entryDx=0;entryDy=0;" edge="1" parent="OCNIVuz7RXcEAR-W5PyZ-1" source="Qt7O-UEUkP4-06e8IKbv-3" target="Qt7O-UEUkP4-06e8IKbv-6">
                    <mxGeometry relative="1" as="geometry"/>
                </mxCell>
                <mxCell id="Qt7O-UEUkP4-06e8IKbv-13" style="edgeStyle=none;html=1;entryX=0.5;entryY=1;entryDx=0;entryDy=0;" edge="1" parent="OCNIVuz7RXcEAR-W5PyZ-1" source="Qt7O-UEUkP4-06e8IKbv-3" target="Qt7O-UEUkP4-06e8IKbv-12">
                    <mxGeometry relative="1" as="geometry"/>
                </mxCell>
                <mxCell id="Qt7O-UEUkP4-06e8IKbv-15" style="edgeStyle=none;html=1;" edge="1" parent="OCNIVuz7RXcEAR-W5PyZ-1" source="Qt7O-UEUkP4-06e8IKbv-3" target="Qt7O-UEUkP4-06e8IKbv-14">
                    <mxGeometry relative="1" as="geometry"/>
                </mxCell>
                <mxCell id="Qt7O-UEUkP4-06e8IKbv-18" style="edgeStyle=none;html=1;" edge="1" parent="OCNIVuz7RXcEAR-W5PyZ-1" source="Qt7O-UEUkP4-06e8IKbv-3" target="Qt7O-UEUkP4-06e8IKbv-17">
                    <mxGeometry relative="1" as="geometry"/>
                </mxCell>
                <mxCell id="Qt7O-UEUkP4-06e8IKbv-26" style="edgeStyle=none;html=1;entryX=0.5;entryY=0;entryDx=0;entryDy=0;exitX=0;exitY=1;exitDx=0;exitDy=0;" edge="1" parent="OCNIVuz7RXcEAR-W5PyZ-1" source="Qt7O-UEUkP4-06e8IKbv-17" target="Qt7O-UEUkP4-06e8IKbv-23">
                    <mxGeometry relative="1" as="geometry">
                        <mxPoint x="348" y="439.9999999999999" as="sourcePoint"/>
                    </mxGeometry>
                </mxCell>
                <mxCell id="Qt7O-UEUkP4-06e8IKbv-27" style="edgeStyle=none;html=1;entryX=0.5;entryY=0;entryDx=0;entryDy=0;" edge="1" parent="OCNIVuz7RXcEAR-W5PyZ-1" source="Qt7O-UEUkP4-06e8IKbv-3" target="Qt7O-UEUkP4-06e8IKbv-16">
                    <mxGeometry relative="1" as="geometry"/>
                </mxCell>
                <mxCell id="Qt7O-UEUkP4-06e8IKbv-37" style="edgeStyle=none;html=1;entryX=0.5;entryY=0;entryDx=0;entryDy=0;" edge="1" parent="OCNIVuz7RXcEAR-W5PyZ-1" source="Qt7O-UEUkP4-06e8IKbv-3" target="Qt7O-UEUkP4-06e8IKbv-36">
                    <mxGeometry relative="1" as="geometry"/>
                </mxCell>
                <mxCell id="Qt7O-UEUkP4-06e8IKbv-3" value="patient" style="rounded=1;whiteSpace=wrap;html=1;" vertex="1" parent="OCNIVuz7RXcEAR-W5PyZ-1">
                    <mxGeometry x="100" y="260" width="120" height="60" as="geometry"/>
                </mxCell>
                <mxCell id="Qt7O-UEUkP4-06e8IKbv-10" style="edgeStyle=none;html=1;entryX=0.5;entryY=1;entryDx=0;entryDy=0;" edge="1" parent="OCNIVuz7RXcEAR-W5PyZ-1" source="Qt7O-UEUkP4-06e8IKbv-4" target="Qt7O-UEUkP4-06e8IKbv-7">
                    <mxGeometry relative="1" as="geometry"/>
                </mxCell>
                <mxCell id="Qt7O-UEUkP4-06e8IKbv-31" style="edgeStyle=none;html=1;entryX=0.5;entryY=1;entryDx=0;entryDy=0;" edge="1" parent="OCNIVuz7RXcEAR-W5PyZ-1" source="Qt7O-UEUkP4-06e8IKbv-4" target="Qt7O-UEUkP4-06e8IKbv-30">
                    <mxGeometry relative="1" as="geometry"/>
                </mxCell>
                <mxCell id="Qt7O-UEUkP4-06e8IKbv-35" style="edgeStyle=none;html=1;entryX=0.26;entryY=0.965;entryDx=0;entryDy=0;entryPerimeter=0;" edge="1" parent="OCNIVuz7RXcEAR-W5PyZ-1" source="Qt7O-UEUkP4-06e8IKbv-4" target="Qt7O-UEUkP4-06e8IKbv-32">
                    <mxGeometry relative="1" as="geometry"/>
                </mxCell>
                <mxCell id="Qt7O-UEUkP4-06e8IKbv-4" value="unit" style="rounded=1;whiteSpace=wrap;html=1;" vertex="1" parent="OCNIVuz7RXcEAR-W5PyZ-1">
                    <mxGeometry x="354" y="260" width="120" height="60" as="geometry"/>
                </mxCell>
                <mxCell id="Qt7O-UEUkP4-06e8IKbv-11" style="edgeStyle=none;html=1;entryX=0.5;entryY=1;entryDx=0;entryDy=0;" edge="1" parent="OCNIVuz7RXcEAR-W5PyZ-1" source="Qt7O-UEUkP4-06e8IKbv-5" target="Qt7O-UEUkP4-06e8IKbv-8">
                    <mxGeometry relative="1" as="geometry"/>
                </mxCell>
                <mxCell id="Qt7O-UEUkP4-06e8IKbv-21" style="edgeStyle=none;html=1;entryX=1;entryY=0.5;entryDx=0;entryDy=0;" edge="1" parent="OCNIVuz7RXcEAR-W5PyZ-1" source="Qt7O-UEUkP4-06e8IKbv-5" target="Qt7O-UEUkP4-06e8IKbv-20">
                    <mxGeometry relative="1" as="geometry"/>
                </mxCell>
                <mxCell id="Qt7O-UEUkP4-06e8IKbv-39" style="edgeStyle=none;html=1;entryX=0.5;entryY=0;entryDx=0;entryDy=0;" edge="1" parent="OCNIVuz7RXcEAR-W5PyZ-1" source="Qt7O-UEUkP4-06e8IKbv-5" target="Qt7O-UEUkP4-06e8IKbv-38">
                    <mxGeometry relative="1" as="geometry"/>
                </mxCell>
                <mxCell id="ujqIZPecRaSySATQUN99-7" style="edgeStyle=none;html=1;entryX=0.5;entryY=0;entryDx=0;entryDy=0;" edge="1" parent="OCNIVuz7RXcEAR-W5PyZ-1" source="Qt7O-UEUkP4-06e8IKbv-5" target="ujqIZPecRaSySATQUN99-5">
                    <mxGeometry relative="1" as="geometry"/>
                </mxCell>
                <mxCell id="ujqIZPecRaSySATQUN99-9" style="edgeStyle=none;html=1;entryX=0.5;entryY=1;entryDx=0;entryDy=0;" edge="1" parent="OCNIVuz7RXcEAR-W5PyZ-1" source="Qt7O-UEUkP4-06e8IKbv-5" target="ujqIZPecRaSySATQUN99-8">
                    <mxGeometry relative="1" as="geometry"/>
                </mxCell>
                <mxCell id="Qt7O-UEUkP4-06e8IKbv-5" value="doctor" style="rounded=1;whiteSpace=wrap;html=1;" vertex="1" parent="OCNIVuz7RXcEAR-W5PyZ-1">
                    <mxGeometry x="660" y="260" width="120" height="60" as="geometry"/>
                </mxCell>
                <mxCell id="Qt7O-UEUkP4-06e8IKbv-6" value="&lt;u&gt;id&lt;/u&gt;" style="ellipse;whiteSpace=wrap;html=1;" vertex="1" parent="OCNIVuz7RXcEAR-W5PyZ-1">
                    <mxGeometry x="80" y="140" width="50" height="40" as="geometry"/>
                </mxCell>
                <mxCell id="Qt7O-UEUkP4-06e8IKbv-7" value="&lt;u&gt;id&lt;/u&gt;" style="ellipse;whiteSpace=wrap;html=1;" vertex="1" parent="OCNIVuz7RXcEAR-W5PyZ-1">
                    <mxGeometry x="354" y="140" width="50" height="40" as="geometry"/>
                </mxCell>
                <mxCell id="Qt7O-UEUkP4-06e8IKbv-8" value="&lt;u&gt;id&lt;/u&gt;" style="ellipse;whiteSpace=wrap;html=1;" vertex="1" parent="OCNIVuz7RXcEAR-W5PyZ-1">
                    <mxGeometry x="600" y="200" width="50" height="40" as="geometry"/>
                </mxCell>
                <mxCell id="Qt7O-UEUkP4-06e8IKbv-12" value="first_name" style="ellipse;whiteSpace=wrap;html=1;" vertex="1" parent="OCNIVuz7RXcEAR-W5PyZ-1">
                    <mxGeometry x="160" y="140" width="80" height="40" as="geometry"/>
                </mxCell>
                <mxCell id="Qt7O-UEUkP4-06e8IKbv-14" value="last_name" style="ellipse;whiteSpace=wrap;html=1;" vertex="1" parent="OCNIVuz7RXcEAR-W5PyZ-1">
                    <mxGeometry x="230" y="180" width="80" height="40" as="geometry"/>
                </mxCell>
                <mxCell id="Qt7O-UEUkP4-06e8IKbv-16" value="insurance_company" style="ellipse;whiteSpace=wrap;html=1;" vertex="1" parent="OCNIVuz7RXcEAR-W5PyZ-1">
                    <mxGeometry y="360" width="130" height="40" as="geometry"/>
                </mxCell>
                <mxCell id="Qt7O-UEUkP4-06e8IKbv-19" style="edgeStyle=none;html=1;entryX=0;entryY=0.5;entryDx=0;entryDy=0;" edge="1" parent="OCNIVuz7RXcEAR-W5PyZ-1" source="Qt7O-UEUkP4-06e8IKbv-17" target="Qt7O-UEUkP4-06e8IKbv-4">
                    <mxGeometry relative="1" as="geometry"/>
                </mxCell>
                <mxCell id="Qt7O-UEUkP4-06e8IKbv-25" style="edgeStyle=none;html=1;entryX=0.5;entryY=0;entryDx=0;entryDy=0;" edge="1" parent="OCNIVuz7RXcEAR-W5PyZ-1" source="Qt7O-UEUkP4-06e8IKbv-17" target="Qt7O-UEUkP4-06e8IKbv-24">
                    <mxGeometry relative="1" as="geometry"/>
                </mxCell>
                <mxCell id="ujqIZPecRaSySATQUN99-2" style="edgeStyle=none;html=1;exitX=1;exitY=1;exitDx=0;exitDy=0;entryX=0.5;entryY=0;entryDx=0;entryDy=0;" edge="1" parent="OCNIVuz7RXcEAR-W5PyZ-1" source="Qt7O-UEUkP4-06e8IKbv-17" target="ujqIZPecRaSySATQUN99-0">
                    <mxGeometry relative="1" as="geometry"/>
                </mxCell>
                <mxCell id="Qt7O-UEUkP4-06e8IKbv-17" value="goes to" style="rhombus;whiteSpace=wrap;html=1;" vertex="1" parent="OCNIVuz7RXcEAR-W5PyZ-1">
                    <mxGeometry x="250" y="250" width="80" height="80" as="geometry"/>
                </mxCell>
                <mxCell id="Qt7O-UEUkP4-06e8IKbv-22" style="edgeStyle=none;html=1;" edge="1" parent="OCNIVuz7RXcEAR-W5PyZ-1" source="Qt7O-UEUkP4-06e8IKbv-20" target="Qt7O-UEUkP4-06e8IKbv-4">
                    <mxGeometry relative="1" as="geometry"/>
                </mxCell>
                <mxCell id="Qt7O-UEUkP4-06e8IKbv-20" value="works at" style="rhombus;whiteSpace=wrap;html=1;" vertex="1" parent="OCNIVuz7RXcEAR-W5PyZ-1">
                    <mxGeometry x="530" y="250" width="80" height="80" as="geometry"/>
                </mxCell>
                <mxCell id="Qt7O-UEUkP4-06e8IKbv-23" value="sv_number" style="ellipse;whiteSpace=wrap;html=1;" vertex="1" parent="OCNIVuz7RXcEAR-W5PyZ-1">
                    <mxGeometry x="210" y="410" width="64" height="40" as="geometry"/>
                </mxCell>
                <mxCell id="Qt7O-UEUkP4-06e8IKbv-24" value="admission_date" style="ellipse;whiteSpace=wrap;html=1;" vertex="1" parent="OCNIVuz7RXcEAR-W5PyZ-1">
                    <mxGeometry x="220" y="460" width="130" height="40" as="geometry"/>
                </mxCell>
                <mxCell id="Qt7O-UEUkP4-06e8IKbv-30" value="name" style="ellipse;whiteSpace=wrap;html=1;" vertex="1" parent="OCNIVuz7RXcEAR-W5PyZ-1">
                    <mxGeometry x="413" y="140" width="80" height="40" as="geometry"/>
                </mxCell>
                <mxCell id="Qt7O-UEUkP4-06e8IKbv-32" value="doctor_id" style="ellipse;whiteSpace=wrap;html=1;" vertex="1" parent="OCNIVuz7RXcEAR-W5PyZ-1">
                    <mxGeometry x="493" y="170" width="80" height="40" as="geometry"/>
                </mxCell>
                <mxCell id="Qt7O-UEUkP4-06e8IKbv-36" value="adress" style="ellipse;whiteSpace=wrap;html=1;" vertex="1" parent="OCNIVuz7RXcEAR-W5PyZ-1">
                    <mxGeometry x="120" y="420" width="50" height="40" as="geometry"/>
                </mxCell>
                <mxCell id="Qt7O-UEUkP4-06e8IKbv-38" value="adress" style="ellipse;whiteSpace=wrap;html=1;" vertex="1" parent="OCNIVuz7RXcEAR-W5PyZ-1">
                    <mxGeometry x="630" y="340" width="50" height="40" as="geometry"/>
                </mxCell>
                <mxCell id="Qt7O-UEUkP4-06e8IKbv-40" style="edgeStyle=none;html=1;entryX=0.5;entryY=1;entryDx=0;entryDy=0;" edge="1" parent="OCNIVuz7RXcEAR-W5PyZ-1" target="Qt7O-UEUkP4-06e8IKbv-42">
                    <mxGeometry relative="1" as="geometry">
                        <mxPoint x="710.9090909090908" y="259.9999999999999" as="sourcePoint"/>
                    </mxGeometry>
                </mxCell>
                <mxCell id="Qt7O-UEUkP4-06e8IKbv-41" style="edgeStyle=none;html=1;" edge="1" parent="OCNIVuz7RXcEAR-W5PyZ-1" target="Qt7O-UEUkP4-06e8IKbv-43">
                    <mxGeometry relative="1" as="geometry">
                        <mxPoint x="736.6564082318162" y="259.9999999999999" as="sourcePoint"/>
                    </mxGeometry>
                </mxCell>
                <mxCell id="Qt7O-UEUkP4-06e8IKbv-42" value="first_name" style="ellipse;whiteSpace=wrap;html=1;" vertex="1" parent="OCNIVuz7RXcEAR-W5PyZ-1">
                    <mxGeometry x="695" y="130" width="80" height="40" as="geometry"/>
                </mxCell>
                <mxCell id="Qt7O-UEUkP4-06e8IKbv-43" value="last_name" style="ellipse;whiteSpace=wrap;html=1;" vertex="1" parent="OCNIVuz7RXcEAR-W5PyZ-1">
                    <mxGeometry x="720" y="190" width="80" height="40" as="geometry"/>
                </mxCell>
                <mxCell id="ujqIZPecRaSySATQUN99-0" value="age" style="ellipse;whiteSpace=wrap;html=1;" vertex="1" parent="OCNIVuz7RXcEAR-W5PyZ-1">
                    <mxGeometry x="310" y="410" width="64" height="40" as="geometry"/>
                </mxCell>
                <mxCell id="ujqIZPecRaSySATQUN99-5" value="profession" style="ellipse;whiteSpace=wrap;html=1;" vertex="1" parent="OCNIVuz7RXcEAR-W5PyZ-1">
                    <mxGeometry x="680" y="340" width="80" height="40" as="geometry"/>
                </mxCell>
                <mxCell id="ujqIZPecRaSySATQUN99-8" value="title" style="ellipse;whiteSpace=wrap;html=1;" vertex="1" parent="OCNIVuz7RXcEAR-W5PyZ-1">
                    <mxGeometry x="640" y="170" width="80" height="40" as="geometry"/>
                </mxCell>
            </root>
        </mxGraphModel>
    </diagram>
    <diagram id="VgjIr--QHFJK0k_jE3ED" name="Page-3">
        <mxGraphModel dx="678" dy="398" grid="1" gridSize="10" guides="1" tooltips="1" connect="1" arrows="1" fold="1" page="1" pageScale="1" pageWidth="827" pageHeight="1169" math="0" shadow="0">
            <root>
                <mxCell id="_IZfTNi4-AF56wJSiORF-0"/>
                <mxCell id="_IZfTNi4-AF56wJSiORF-1" parent="_IZfTNi4-AF56wJSiORF-0"/>
                <mxCell id="_IZfTNi4-AF56wJSiORF-46" value="patient" style="swimlane;fontStyle=0;childLayout=stackLayout;horizontal=1;startSize=30;horizontalStack=0;resizeParent=1;resizeParentMax=0;resizeLast=0;collapsible=1;marginBottom=0;" vertex="1" parent="_IZfTNi4-AF56wJSiORF-1">
                    <mxGeometry x="30" y="60" width="160" height="300" as="geometry"/>
                </mxCell>
                <mxCell id="_IZfTNi4-AF56wJSiORF-47" value="id int PK" style="text;strokeColor=none;fillColor=none;align=left;verticalAlign=middle;spacingLeft=4;spacingRight=4;overflow=hidden;points=[[0,0.5],[1,0.5]];portConstraint=eastwest;rotatable=0;" vertex="1" parent="_IZfTNi4-AF56wJSiORF-46">
                    <mxGeometry y="30" width="160" height="30" as="geometry"/>
                </mxCell>
                <mxCell id="_IZfTNi4-AF56wJSiORF-48" value="first_name varchar" style="text;strokeColor=none;fillColor=none;align=left;verticalAlign=middle;spacingLeft=4;spacingRight=4;overflow=hidden;points=[[0,0.5],[1,0.5]];portConstraint=eastwest;rotatable=0;" vertex="1" parent="_IZfTNi4-AF56wJSiORF-46">
                    <mxGeometry y="60" width="160" height="30" as="geometry"/>
                </mxCell>
                <mxCell id="_IZfTNi4-AF56wJSiORF-49" value="last_name varchar" style="text;strokeColor=none;fillColor=none;align=left;verticalAlign=middle;spacingLeft=4;spacingRight=4;overflow=hidden;points=[[0,0.5],[1,0.5]];portConstraint=eastwest;rotatable=0;" vertex="1" parent="_IZfTNi4-AF56wJSiORF-46">
                    <mxGeometry y="90" width="160" height="30" as="geometry"/>
                </mxCell>
                <mxCell id="_IZfTNi4-AF56wJSiORF-62" value="insurance_company varchar" style="text;strokeColor=none;fillColor=none;align=left;verticalAlign=middle;spacingLeft=4;spacingRight=4;overflow=hidden;points=[[0,0.5],[1,0.5]];portConstraint=eastwest;rotatable=0;" vertex="1" parent="_IZfTNi4-AF56wJSiORF-46">
                    <mxGeometry y="120" width="160" height="30" as="geometry"/>
                </mxCell>
                <mxCell id="_IZfTNi4-AF56wJSiORF-63" value="address varchar" style="text;strokeColor=none;fillColor=none;align=left;verticalAlign=middle;spacingLeft=4;spacingRight=4;overflow=hidden;points=[[0,0.5],[1,0.5]];portConstraint=eastwest;rotatable=0;" vertex="1" parent="_IZfTNi4-AF56wJSiORF-46">
                    <mxGeometry y="150" width="160" height="30" as="geometry"/>
                </mxCell>
                <mxCell id="_IZfTNi4-AF56wJSiORF-64" value="sv_number varchar" style="text;strokeColor=none;fillColor=none;align=left;verticalAlign=middle;spacingLeft=4;spacingRight=4;overflow=hidden;points=[[0,0.5],[1,0.5]];portConstraint=eastwest;rotatable=0;" vertex="1" parent="_IZfTNi4-AF56wJSiORF-46">
                    <mxGeometry y="180" width="160" height="30" as="geometry"/>
                </mxCell>
                <mxCell id="_IZfTNi4-AF56wJSiORF-65" value="age int" style="text;strokeColor=none;fillColor=none;align=left;verticalAlign=middle;spacingLeft=4;spacingRight=4;overflow=hidden;points=[[0,0.5],[1,0.5]];portConstraint=eastwest;rotatable=0;" vertex="1" parent="_IZfTNi4-AF56wJSiORF-46">
                    <mxGeometry y="210" width="160" height="30" as="geometry"/>
                </mxCell>
                <mxCell id="_IZfTNi4-AF56wJSiORF-66" value="admission_date int" style="text;strokeColor=none;fillColor=none;align=left;verticalAlign=middle;spacingLeft=4;spacingRight=4;overflow=hidden;points=[[0,0.5],[1,0.5]];portConstraint=eastwest;rotatable=0;" vertex="1" parent="_IZfTNi4-AF56wJSiORF-46">
                    <mxGeometry y="240" width="160" height="30" as="geometry"/>
                </mxCell>
                <mxCell id="_IZfTNi4-AF56wJSiORF-77" value="unit_id int" style="text;strokeColor=none;fillColor=none;align=left;verticalAlign=middle;spacingLeft=4;spacingRight=4;overflow=hidden;points=[[0,0.5],[1,0.5]];portConstraint=eastwest;rotatable=0;" vertex="1" parent="_IZfTNi4-AF56wJSiORF-46">
                    <mxGeometry y="270" width="160" height="30" as="geometry"/>
                </mxCell>
                <mxCell id="_IZfTNi4-AF56wJSiORF-54" value="unit" style="swimlane;fontStyle=0;childLayout=stackLayout;horizontal=1;startSize=30;horizontalStack=0;resizeParent=1;resizeParentMax=0;resizeLast=0;collapsible=1;marginBottom=0;" vertex="1" parent="_IZfTNi4-AF56wJSiORF-1">
                    <mxGeometry x="270" y="60" width="140" height="120" as="geometry"/>
                </mxCell>
                <mxCell id="_IZfTNi4-AF56wJSiORF-55" value="id int PK" style="text;strokeColor=none;fillColor=none;align=left;verticalAlign=middle;spacingLeft=4;spacingRight=4;overflow=hidden;points=[[0,0.5],[1,0.5]];portConstraint=eastwest;rotatable=0;" vertex="1" parent="_IZfTNi4-AF56wJSiORF-54">
                    <mxGeometry y="30" width="140" height="30" as="geometry"/>
                </mxCell>
                <mxCell id="_IZfTNi4-AF56wJSiORF-56" value="name" style="text;strokeColor=none;fillColor=none;align=left;verticalAlign=middle;spacingLeft=4;spacingRight=4;overflow=hidden;points=[[0,0.5],[1,0.5]];portConstraint=eastwest;rotatable=0;" vertex="1" parent="_IZfTNi4-AF56wJSiORF-54">
                    <mxGeometry y="60" width="140" height="30" as="geometry"/>
                </mxCell>
                <mxCell id="_IZfTNi4-AF56wJSiORF-57" value="doctor_id" style="text;strokeColor=none;fillColor=none;align=left;verticalAlign=middle;spacingLeft=4;spacingRight=4;overflow=hidden;points=[[0,0.5],[1,0.5]];portConstraint=eastwest;rotatable=0;" vertex="1" parent="_IZfTNi4-AF56wJSiORF-54">
                    <mxGeometry y="90" width="140" height="30" as="geometry"/>
                </mxCell>
                <mxCell id="_IZfTNi4-AF56wJSiORF-67" value="patient" style="swimlane;fontStyle=0;childLayout=stackLayout;horizontal=1;startSize=30;horizontalStack=0;resizeParent=1;resizeParentMax=0;resizeLast=0;collapsible=1;marginBottom=0;" vertex="1" parent="_IZfTNi4-AF56wJSiORF-1">
                    <mxGeometry x="490" y="60" width="160" height="210" as="geometry"/>
                </mxCell>
                <mxCell id="_IZfTNi4-AF56wJSiORF-68" value="id int PK" style="text;strokeColor=none;fillColor=none;align=left;verticalAlign=middle;spacingLeft=4;spacingRight=4;overflow=hidden;points=[[0,0.5],[1,0.5]];portConstraint=eastwest;rotatable=0;" vertex="1" parent="_IZfTNi4-AF56wJSiORF-67">
                    <mxGeometry y="30" width="160" height="30" as="geometry"/>
                </mxCell>
                <mxCell id="_IZfTNi4-AF56wJSiORF-71" value="title varchar" style="text;strokeColor=none;fillColor=none;align=left;verticalAlign=middle;spacingLeft=4;spacingRight=4;overflow=hidden;points=[[0,0.5],[1,0.5]];portConstraint=eastwest;rotatable=0;" vertex="1" parent="_IZfTNi4-AF56wJSiORF-67">
                    <mxGeometry y="60" width="160" height="30" as="geometry"/>
                </mxCell>
                <mxCell id="_IZfTNi4-AF56wJSiORF-69" value="first_name varchar" style="text;strokeColor=none;fillColor=none;align=left;verticalAlign=middle;spacingLeft=4;spacingRight=4;overflow=hidden;points=[[0,0.5],[1,0.5]];portConstraint=eastwest;rotatable=0;" vertex="1" parent="_IZfTNi4-AF56wJSiORF-67">
                    <mxGeometry y="90" width="160" height="30" as="geometry"/>
                </mxCell>
                <mxCell id="_IZfTNi4-AF56wJSiORF-70" value="last_name varchar" style="text;strokeColor=none;fillColor=none;align=left;verticalAlign=middle;spacingLeft=4;spacingRight=4;overflow=hidden;points=[[0,0.5],[1,0.5]];portConstraint=eastwest;rotatable=0;" vertex="1" parent="_IZfTNi4-AF56wJSiORF-67">
                    <mxGeometry y="120" width="160" height="30" as="geometry"/>
                </mxCell>
                <mxCell id="_IZfTNi4-AF56wJSiORF-72" value="address varchar" style="text;strokeColor=none;fillColor=none;align=left;verticalAlign=middle;spacingLeft=4;spacingRight=4;overflow=hidden;points=[[0,0.5],[1,0.5]];portConstraint=eastwest;rotatable=0;" vertex="1" parent="_IZfTNi4-AF56wJSiORF-67">
                    <mxGeometry y="150" width="160" height="30" as="geometry"/>
                </mxCell>
                <mxCell id="_IZfTNi4-AF56wJSiORF-73" value="profession varchar" style="text;strokeColor=none;fillColor=none;align=left;verticalAlign=middle;spacingLeft=4;spacingRight=4;overflow=hidden;points=[[0,0.5],[1,0.5]];portConstraint=eastwest;rotatable=0;" vertex="1" parent="_IZfTNi4-AF56wJSiORF-67">
                    <mxGeometry y="180" width="160" height="30" as="geometry"/>
                </mxCell>
                <mxCell id="_IZfTNi4-AF56wJSiORF-76" style="edgeStyle=orthogonalEdgeStyle;html=1;entryX=1;entryY=0.5;entryDx=0;entryDy=0;" edge="1" parent="_IZfTNi4-AF56wJSiORF-1" source="_IZfTNi4-AF56wJSiORF-68" target="_IZfTNi4-AF56wJSiORF-57">
                    <mxGeometry relative="1" as="geometry"/>
                </mxCell>
                <mxCell id="_IZfTNi4-AF56wJSiORF-78" style="edgeStyle=orthogonalEdgeStyle;html=1;" edge="1" parent="_IZfTNi4-AF56wJSiORF-1" source="_IZfTNi4-AF56wJSiORF-55" target="_IZfTNi4-AF56wJSiORF-77">
                    <mxGeometry relative="1" as="geometry"/>
                </mxCell>
            </root>
        </mxGraphModel>
    </diagram>
    <diagram id="Mmmq6NiDlPKxU1Ri9j7g" name="Page-4">
        <mxGraphModel dx="508" dy="416" grid="1" gridSize="10" guides="1" tooltips="1" connect="1" arrows="1" fold="1" page="1" pageScale="1" pageWidth="827" pageHeight="1169" math="0" shadow="0">
            <root>
                <mxCell id="l3fUSMmjLpQXYI73MnZg-0"/>
                <mxCell id="l3fUSMmjLpQXYI73MnZg-1" parent="l3fUSMmjLpQXYI73MnZg-0"/>
                <mxCell id="l3fUSMmjLpQXYI73MnZg-2" value="patient" style="swimlane;fontStyle=0;childLayout=stackLayout;horizontal=1;startSize=30;horizontalStack=0;resizeParent=1;resizeParentMax=0;resizeLast=0;collapsible=1;marginBottom=0;" vertex="1" parent="l3fUSMmjLpQXYI73MnZg-1">
                    <mxGeometry x="110" y="60" width="160" height="300" as="geometry"/>
                </mxCell>
                <mxCell id="l3fUSMmjLpQXYI73MnZg-3" value="id int PK" style="text;strokeColor=none;fillColor=none;align=left;verticalAlign=middle;spacingLeft=4;spacingRight=4;overflow=hidden;points=[[0,0.5],[1,0.5]];portConstraint=eastwest;rotatable=0;" vertex="1" parent="l3fUSMmjLpQXYI73MnZg-2">
                    <mxGeometry y="30" width="160" height="30" as="geometry"/>
                </mxCell>
                <mxCell id="l3fUSMmjLpQXYI73MnZg-4" value="first_name varchar" style="text;strokeColor=none;fillColor=none;align=left;verticalAlign=middle;spacingLeft=4;spacingRight=4;overflow=hidden;points=[[0,0.5],[1,0.5]];portConstraint=eastwest;rotatable=0;" vertex="1" parent="l3fUSMmjLpQXYI73MnZg-2">
                    <mxGeometry y="60" width="160" height="30" as="geometry"/>
                </mxCell>
                <mxCell id="l3fUSMmjLpQXYI73MnZg-5" value="last_name varchar" style="text;strokeColor=none;fillColor=none;align=left;verticalAlign=middle;spacingLeft=4;spacingRight=4;overflow=hidden;points=[[0,0.5],[1,0.5]];portConstraint=eastwest;rotatable=0;" vertex="1" parent="l3fUSMmjLpQXYI73MnZg-2">
                    <mxGeometry y="90" width="160" height="30" as="geometry"/>
                </mxCell>
                <mxCell id="l3fUSMmjLpQXYI73MnZg-6" value="insurance_company varchar" style="text;strokeColor=none;fillColor=none;align=left;verticalAlign=middle;spacingLeft=4;spacingRight=4;overflow=hidden;points=[[0,0.5],[1,0.5]];portConstraint=eastwest;rotatable=0;" vertex="1" parent="l3fUSMmjLpQXYI73MnZg-2">
                    <mxGeometry y="120" width="160" height="30" as="geometry"/>
                </mxCell>
                <mxCell id="l3fUSMmjLpQXYI73MnZg-8" value="sv_number varchar" style="text;strokeColor=none;fillColor=none;align=left;verticalAlign=middle;spacingLeft=4;spacingRight=4;overflow=hidden;points=[[0,0.5],[1,0.5]];portConstraint=eastwest;rotatable=0;" vertex="1" parent="l3fUSMmjLpQXYI73MnZg-2">
                    <mxGeometry y="150" width="160" height="30" as="geometry"/>
                </mxCell>
                <mxCell id="l3fUSMmjLpQXYI73MnZg-9" value="age int" style="text;strokeColor=none;fillColor=none;align=left;verticalAlign=middle;spacingLeft=4;spacingRight=4;overflow=hidden;points=[[0,0.5],[1,0.5]];portConstraint=eastwest;rotatable=0;" vertex="1" parent="l3fUSMmjLpQXYI73MnZg-2">
                    <mxGeometry y="180" width="160" height="30" as="geometry"/>
                </mxCell>
                <mxCell id="l3fUSMmjLpQXYI73MnZg-10" value="admission_date int" style="text;strokeColor=none;fillColor=none;align=left;verticalAlign=middle;spacingLeft=4;spacingRight=4;overflow=hidden;points=[[0,0.5],[1,0.5]];portConstraint=eastwest;rotatable=0;" vertex="1" parent="l3fUSMmjLpQXYI73MnZg-2">
                    <mxGeometry y="210" width="160" height="30" as="geometry"/>
                </mxCell>
                <mxCell id="l3fUSMmjLpQXYI73MnZg-11" value="unit_id int" style="text;strokeColor=none;fillColor=none;align=left;verticalAlign=middle;spacingLeft=4;spacingRight=4;overflow=hidden;points=[[0,0.5],[1,0.5]];portConstraint=eastwest;rotatable=0;" vertex="1" parent="l3fUSMmjLpQXYI73MnZg-2">
                    <mxGeometry y="240" width="160" height="30" as="geometry"/>
                </mxCell>
                <mxCell id="l3fUSMmjLpQXYI73MnZg-25" value="address_id int" style="text;strokeColor=none;fillColor=none;align=left;verticalAlign=middle;spacingLeft=4;spacingRight=4;overflow=hidden;points=[[0,0.5],[1,0.5]];portConstraint=eastwest;rotatable=0;" vertex="1" parent="l3fUSMmjLpQXYI73MnZg-2">
                    <mxGeometry y="270" width="160" height="30" as="geometry"/>
                </mxCell>
                <mxCell id="l3fUSMmjLpQXYI73MnZg-12" value="unit" style="swimlane;fontStyle=0;childLayout=stackLayout;horizontal=1;startSize=30;horizontalStack=0;resizeParent=1;resizeParentMax=0;resizeLast=0;collapsible=1;marginBottom=0;" vertex="1" parent="l3fUSMmjLpQXYI73MnZg-1">
                    <mxGeometry x="350" y="60" width="140" height="120" as="geometry"/>
                </mxCell>
                <mxCell id="l3fUSMmjLpQXYI73MnZg-13" value="id int PK" style="text;strokeColor=none;fillColor=none;align=left;verticalAlign=middle;spacingLeft=4;spacingRight=4;overflow=hidden;points=[[0,0.5],[1,0.5]];portConstraint=eastwest;rotatable=0;" vertex="1" parent="l3fUSMmjLpQXYI73MnZg-12">
                    <mxGeometry y="30" width="140" height="30" as="geometry"/>
                </mxCell>
                <mxCell id="l3fUSMmjLpQXYI73MnZg-14" value="name" style="text;strokeColor=none;fillColor=none;align=left;verticalAlign=middle;spacingLeft=4;spacingRight=4;overflow=hidden;points=[[0,0.5],[1,0.5]];portConstraint=eastwest;rotatable=0;" vertex="1" parent="l3fUSMmjLpQXYI73MnZg-12">
                    <mxGeometry y="60" width="140" height="30" as="geometry"/>
                </mxCell>
                <mxCell id="l3fUSMmjLpQXYI73MnZg-15" value="doctor_id" style="text;strokeColor=none;fillColor=none;align=left;verticalAlign=middle;spacingLeft=4;spacingRight=4;overflow=hidden;points=[[0,0.5],[1,0.5]];portConstraint=eastwest;rotatable=0;" vertex="1" parent="l3fUSMmjLpQXYI73MnZg-12">
                    <mxGeometry y="90" width="140" height="30" as="geometry"/>
                </mxCell>
                <mxCell id="l3fUSMmjLpQXYI73MnZg-16" value="patient" style="swimlane;fontStyle=0;childLayout=stackLayout;horizontal=1;startSize=30;horizontalStack=0;resizeParent=1;resizeParentMax=0;resizeLast=0;collapsible=1;marginBottom=0;" vertex="1" parent="l3fUSMmjLpQXYI73MnZg-1">
                    <mxGeometry x="570" y="60" width="160" height="210" as="geometry"/>
                </mxCell>
                <mxCell id="l3fUSMmjLpQXYI73MnZg-17" value="id int PK" style="text;strokeColor=none;fillColor=none;align=left;verticalAlign=middle;spacingLeft=4;spacingRight=4;overflow=hidden;points=[[0,0.5],[1,0.5]];portConstraint=eastwest;rotatable=0;" vertex="1" parent="l3fUSMmjLpQXYI73MnZg-16">
                    <mxGeometry y="30" width="160" height="30" as="geometry"/>
                </mxCell>
                <mxCell id="l3fUSMmjLpQXYI73MnZg-18" value="title varchar" style="text;strokeColor=none;fillColor=none;align=left;verticalAlign=middle;spacingLeft=4;spacingRight=4;overflow=hidden;points=[[0,0.5],[1,0.5]];portConstraint=eastwest;rotatable=0;" vertex="1" parent="l3fUSMmjLpQXYI73MnZg-16">
                    <mxGeometry y="60" width="160" height="30" as="geometry"/>
                </mxCell>
                <mxCell id="l3fUSMmjLpQXYI73MnZg-19" value="first_name varchar" style="text;strokeColor=none;fillColor=none;align=left;verticalAlign=middle;spacingLeft=4;spacingRight=4;overflow=hidden;points=[[0,0.5],[1,0.5]];portConstraint=eastwest;rotatable=0;" vertex="1" parent="l3fUSMmjLpQXYI73MnZg-16">
                    <mxGeometry y="90" width="160" height="30" as="geometry"/>
                </mxCell>
                <mxCell id="l3fUSMmjLpQXYI73MnZg-20" value="last_name varchar" style="text;strokeColor=none;fillColor=none;align=left;verticalAlign=middle;spacingLeft=4;spacingRight=4;overflow=hidden;points=[[0,0.5],[1,0.5]];portConstraint=eastwest;rotatable=0;" vertex="1" parent="l3fUSMmjLpQXYI73MnZg-16">
                    <mxGeometry y="120" width="160" height="30" as="geometry"/>
                </mxCell>
                <mxCell id="l3fUSMmjLpQXYI73MnZg-21" value="address_id int" style="text;strokeColor=none;fillColor=none;align=left;verticalAlign=middle;spacingLeft=4;spacingRight=4;overflow=hidden;points=[[0,0.5],[1,0.5]];portConstraint=eastwest;rotatable=0;" vertex="1" parent="l3fUSMmjLpQXYI73MnZg-16">
                    <mxGeometry y="150" width="160" height="30" as="geometry"/>
                </mxCell>
                <mxCell id="l3fUSMmjLpQXYI73MnZg-22" value="profession varchar" style="text;strokeColor=none;fillColor=none;align=left;verticalAlign=middle;spacingLeft=4;spacingRight=4;overflow=hidden;points=[[0,0.5],[1,0.5]];portConstraint=eastwest;rotatable=0;" vertex="1" parent="l3fUSMmjLpQXYI73MnZg-16">
                    <mxGeometry y="180" width="160" height="30" as="geometry"/>
                </mxCell>
                <mxCell id="l3fUSMmjLpQXYI73MnZg-23" style="edgeStyle=orthogonalEdgeStyle;html=1;entryX=1;entryY=0.5;entryDx=0;entryDy=0;" edge="1" parent="l3fUSMmjLpQXYI73MnZg-1" source="l3fUSMmjLpQXYI73MnZg-17" target="l3fUSMmjLpQXYI73MnZg-15">
                    <mxGeometry relative="1" as="geometry"/>
                </mxCell>
                <mxCell id="l3fUSMmjLpQXYI73MnZg-24" style="edgeStyle=orthogonalEdgeStyle;html=1;" edge="1" parent="l3fUSMmjLpQXYI73MnZg-1" source="l3fUSMmjLpQXYI73MnZg-13" target="l3fUSMmjLpQXYI73MnZg-11">
                    <mxGeometry relative="1" as="geometry"/>
                </mxCell>
                <mxCell id="l3fUSMmjLpQXYI73MnZg-26" value="adress" style="swimlane;fontStyle=0;childLayout=stackLayout;horizontal=1;startSize=30;horizontalStack=0;resizeParent=1;resizeParentMax=0;resizeLast=0;collapsible=1;marginBottom=0;" vertex="1" parent="l3fUSMmjLpQXYI73MnZg-1">
                    <mxGeometry x="340" y="320" width="140" height="180" as="geometry"/>
                </mxCell>
                <mxCell id="l3fUSMmjLpQXYI73MnZg-27" value="id int PK" style="text;strokeColor=none;fillColor=none;align=left;verticalAlign=middle;spacingLeft=4;spacingRight=4;overflow=hidden;points=[[0,0.5],[1,0.5]];portConstraint=eastwest;rotatable=0;" vertex="1" parent="l3fUSMmjLpQXYI73MnZg-26">
                    <mxGeometry y="30" width="140" height="30" as="geometry"/>
                </mxCell>
                <mxCell id="l3fUSMmjLpQXYI73MnZg-28" value="zip_code int" style="text;strokeColor=none;fillColor=none;align=left;verticalAlign=middle;spacingLeft=4;spacingRight=4;overflow=hidden;points=[[0,0.5],[1,0.5]];portConstraint=eastwest;rotatable=0;" vertex="1" parent="l3fUSMmjLpQXYI73MnZg-26">
                    <mxGeometry y="60" width="140" height="30" as="geometry"/>
                </mxCell>
                <mxCell id="l3fUSMmjLpQXYI73MnZg-29" value="city varchar" style="text;strokeColor=none;fillColor=none;align=left;verticalAlign=middle;spacingLeft=4;spacingRight=4;overflow=hidden;points=[[0,0.5],[1,0.5]];portConstraint=eastwest;rotatable=0;" vertex="1" parent="l3fUSMmjLpQXYI73MnZg-26">
                    <mxGeometry y="90" width="140" height="30" as="geometry"/>
                </mxCell>
                <mxCell id="l3fUSMmjLpQXYI73MnZg-30" value="street_name varchar" style="text;strokeColor=none;fillColor=none;align=left;verticalAlign=middle;spacingLeft=4;spacingRight=4;overflow=hidden;points=[[0,0.5],[1,0.5]];portConstraint=eastwest;rotatable=0;" vertex="1" parent="l3fUSMmjLpQXYI73MnZg-26">
                    <mxGeometry y="120" width="140" height="30" as="geometry"/>
                </mxCell>
                <mxCell id="l3fUSMmjLpQXYI73MnZg-31" value="street_number int" style="text;strokeColor=none;fillColor=none;align=left;verticalAlign=middle;spacingLeft=4;spacingRight=4;overflow=hidden;points=[[0,0.5],[1,0.5]];portConstraint=eastwest;rotatable=0;" vertex="1" parent="l3fUSMmjLpQXYI73MnZg-26">
                    <mxGeometry y="150" width="140" height="30" as="geometry"/>
                </mxCell>
                <mxCell id="l3fUSMmjLpQXYI73MnZg-32" style="edgeStyle=orthogonalEdgeStyle;html=1;entryX=1;entryY=0.5;entryDx=0;entryDy=0;" edge="1" parent="l3fUSMmjLpQXYI73MnZg-1" source="l3fUSMmjLpQXYI73MnZg-21" target="l3fUSMmjLpQXYI73MnZg-27">
                    <mxGeometry relative="1" as="geometry"/>
                </mxCell>
                <mxCell id="l3fUSMmjLpQXYI73MnZg-33" style="edgeStyle=orthogonalEdgeStyle;html=1;entryX=0;entryY=0.5;entryDx=0;entryDy=0;" edge="1" parent="l3fUSMmjLpQXYI73MnZg-1" source="l3fUSMmjLpQXYI73MnZg-25" target="l3fUSMmjLpQXYI73MnZg-27">
                    <mxGeometry relative="1" as="geometry"/>
                </mxCell>
            </root>
        </mxGraphModel>
    </diagram>
</mxfile>